<svg xmlns="http://www.w3.org/2000/svg" xmlns:xlink="http://www.w3.org/1999/xlink" width="2000" zoomAndPan="magnify" viewBox="0 0 1500 1499.999933" height="2000" preserveAspectRatio="xMidYMid meet" version="1.0"><defs><g></g><clipPath id="0491788658"><path d="M 389.707031 804.398438 L 1167.433594 804.398438 L 1167.433594 959.648438 L 389.707031 959.648438 Z M 389.707031 804.398438 " clip-rule="nonzero"></path></clipPath><clipPath id="0cce5bc9e2"><path d="M 454.199219 804.398438 L 1102.84375 804.398438 C 1138.464844 804.398438 1167.339844 833.273438 1167.339844 868.890625 L 1167.339844 895.210938 C 1167.339844 930.828125 1138.464844 959.707031 1102.84375 959.707031 L 454.199219 959.707031 C 418.582031 959.707031 389.707031 930.828125 389.707031 895.210938 L 389.707031 868.890625 C 389.707031 833.273438 418.582031 804.398438 454.199219 804.398438 Z M 454.199219 804.398438 " clip-rule="nonzero"></path></clipPath><clipPath id="8b1a648b0c"><rect x="0" width="467" y="0" height="67"></rect></clipPath><clipPath id="dffce73409"><path d="M 1024.160156 832.15625 L 1123.957031 832.15625 L 1123.957031 931.957031 L 1024.160156 931.957031 Z M 1024.160156 832.15625 " clip-rule="nonzero"></path></clipPath><clipPath id="99b1af44f3"><path d="M 1074.058594 832.15625 C 1046.5 832.15625 1024.160156 854.5 1024.160156 882.054688 C 1024.160156 909.613281 1046.5 931.957031 1074.058594 931.957031 C 1101.617188 931.957031 1123.957031 909.613281 1123.957031 882.054688 C 1123.957031 854.5 1101.617188 832.15625 1074.058594 832.15625 Z M 1074.058594 832.15625 " clip-rule="nonzero"></path></clipPath><clipPath id="2c90735ec6"><path d="M 0.160156 0.15625 L 99.957031 0.15625 L 99.957031 99.957031 L 0.160156 99.957031 Z M 0.160156 0.15625 " clip-rule="nonzero"></path></clipPath><clipPath id="23c7bf15eb"><path d="M 50.058594 0.15625 C 22.5 0.15625 0.160156 22.5 0.160156 50.054688 C 0.160156 77.613281 22.5 99.957031 50.058594 99.957031 C 77.617188 99.957031 99.957031 77.613281 99.957031 50.054688 C 99.957031 22.5 77.617188 0.15625 50.058594 0.15625 Z M 50.058594 0.15625 " clip-rule="nonzero"></path></clipPath><clipPath id="7b8841a128"><rect x="0" width="100" y="0" height="100"></rect></clipPath><clipPath id="f0672be008"><path d="M 1024.160156 832.15625 L 1123.910156 832.15625 L 1123.910156 931.90625 L 1024.160156 931.90625 Z M 1024.160156 832.15625 " clip-rule="nonzero"></path></clipPath><clipPath id="6f19979832"><path d="M 1074.058594 832.15625 C 1046.5 832.15625 1024.160156 854.496094 1024.160156 882.054688 C 1024.160156 909.613281 1046.5 931.953125 1074.058594 931.953125 C 1101.617188 931.953125 1123.957031 909.613281 1123.957031 882.054688 C 1123.957031 854.496094 1101.617188 832.15625 1074.058594 832.15625 Z M 1074.058594 832.15625 " clip-rule="nonzero"></path></clipPath><clipPath id="7a58cfe772"><rect x="0" width="172" y="0" height="250"></rect></clipPath><clipPath id="9a6115fa2a"><rect x="0" width="55" y="0" height="235"></rect></clipPath><clipPath id="c9ba9d2867"><rect x="0" width="853" y="0" height="189"></rect></clipPath></defs><g clip-path="url(#0491788658)"><g clip-path="url(#0cce5bc9e2)"><path stroke-linecap="butt" transform="matrix(0.75, 0, 0, 0.75, 389.682187, 804.396535)" fill="none" stroke-linejoin="miter" d="M 86.022722 0.00253705 L 950.882227 0.00253705 C 998.371817 0.00253705 1036.877031 38.502543 1036.877031 85.992133 L 1036.877031 121.085889 C 1036.877031 168.575479 998.371817 207.080693 950.882227 207.080693 L 86.022722 207.080693 C 38.533131 207.080693 0.0331257 168.575479 0.0331257 121.085889 L 0.0331257 85.992133 C 0.0331257 38.502543 38.533131 0.00253705 86.022722 0.00253705 Z M 86.022722 0.00253705 " stroke="#d2976f" stroke-width="14" stroke-opacity="1" stroke-miterlimit="4"></path></g></g><g transform="matrix(1, 0, 0, 1, 463, 852)"><g clip-path="url(#8b1a648b0c)"><g fill="#69bac5" fill-opacity="1"><g transform="translate(0.385501, 50.497695)"><g><path d="M 27.28125 1.1875 C 21.832031 1.1875 17.375 0.109375 13.90625 -2.046875 C 10.445312 -4.210938 7.90625 -7.132812 6.28125 -10.8125 C 4.65625 -14.488281 3.84375 -18.628906 3.84375 -23.234375 C 3.84375 -27.785156 4.675781 -31.898438 6.34375 -35.578125 C 8.019531 -39.253906 10.601562 -42.1875 14.09375 -44.375 C 17.582031 -46.5625 22.046875 -47.65625 27.484375 -47.65625 C 32.410156 -47.65625 36.441406 -46.910156 39.578125 -45.421875 C 42.722656 -43.929688 45.109375 -41.8125 46.734375 -39.0625 C 48.367188 -36.320312 49.347656 -33.019531 49.671875 -29.15625 L 42.34375 -29.15625 C 41.882812 -33.15625 40.476562 -36.25 38.125 -38.4375 C 35.78125 -40.625 32.1875 -41.71875 27.34375 -41.71875 C 21.851562 -41.71875 17.816406 -40.144531 15.234375 -37 C 12.660156 -33.863281 11.375 -29.273438 11.375 -23.234375 C 11.375 -17.179688 12.628906 -12.585938 15.140625 -9.453125 C 17.648438 -6.316406 21.648438 -4.75 27.140625 -4.75 C 32.160156 -4.75 35.890625 -5.929688 38.328125 -8.296875 C 40.773438 -10.671875 42.160156 -13.925781 42.484375 -18.0625 L 49.875 -18.0625 C 49.644531 -14.15625 48.71875 -10.757812 47.09375 -7.875 C 45.46875 -5 43.035156 -2.769531 39.796875 -1.1875 C 36.566406 0.394531 32.394531 1.1875 27.28125 1.1875 Z M 27.28125 1.1875 "></path></g></g></g><g fill="#69bac5" fill-opacity="1"><g transform="translate(50.582233, 50.497695)"><g><path d="M 24.140625 -35.4375 L 25.1875 -35.4375 L 25.1875 -28.671875 L 23.4375 -28.671875 C 20.320312 -28.671875 17.925781 -28.050781 16.25 -26.8125 C 14.582031 -25.582031 13.429688 -23.816406 12.796875 -21.515625 C 12.171875 -19.210938 11.859375 -16.484375 11.859375 -13.328125 L 11.859375 0 L 4.890625 0 L 4.890625 -34.875 L 11.796875 -34.875 L 11.796875 -26.4375 C 12.859375 -29.039062 14.363281 -31.191406 16.3125 -32.890625 C 18.269531 -34.585938 20.878906 -35.4375 24.140625 -35.4375 Z M 24.140625 -35.4375 "></path></g></g></g><g fill="#69bac5" fill-opacity="1"><g transform="translate(74.773144, 50.497695)"><g><path d="M 21.0625 -4.046875 C 24.226562 -4.046875 26.585938 -4.671875 28.140625 -5.921875 C 29.703125 -7.179688 30.71875 -8.71875 31.1875 -10.53125 L 37.609375 -10.53125 C 37.460938 -9.320312 37.078125 -8.039062 36.453125 -6.6875 C 35.828125 -5.34375 34.875 -4.078125 33.59375 -2.890625 C 32.3125 -1.703125 30.632812 -0.738281 28.5625 0 C 26.5 0.738281 23.929688 1.109375 20.859375 1.109375 C 16.722656 1.109375 13.351562 0.273438 10.75 -1.390625 C 8.144531 -3.066406 6.234375 -5.3125 5.015625 -8.125 C 3.804688 -10.9375 3.203125 -14.066406 3.203125 -17.515625 C 3.203125 -20.910156 3.84375 -24 5.125 -26.78125 C 6.40625 -29.570312 8.359375 -31.804688 10.984375 -33.484375 C 13.617188 -35.160156 16.910156 -36 20.859375 -36 C 24.578125 -36 27.679688 -35.207031 30.171875 -33.625 C 32.660156 -32.039062 34.53125 -29.898438 35.78125 -27.203125 C 37.039062 -24.503906 37.671875 -21.484375 37.671875 -18.140625 C 37.671875 -17.671875 37.671875 -17.226562 37.671875 -16.8125 C 37.671875 -16.394531 37.625 -15.953125 37.53125 -15.484375 L 10.046875 -15.484375 C 10.234375 -12.554688 10.828125 -10.265625 11.828125 -8.609375 C 12.828125 -6.960938 14.113281 -5.789062 15.6875 -5.09375 C 17.269531 -4.394531 19.0625 -4.046875 21.0625 -4.046875 Z M 20.921875 -30.84375 C 17.953125 -30.84375 15.515625 -30.097656 13.609375 -28.609375 C 11.703125 -27.117188 10.535156 -24.441406 10.109375 -20.578125 L 30.96875 -20.578125 C 30.789062 -24.117188 29.851562 -26.710938 28.15625 -28.359375 C 26.457031 -30.015625 24.046875 -30.84375 20.921875 -30.84375 Z M 20.921875 -30.84375 "></path></g></g></g><g fill="#69bac5" fill-opacity="1"><g transform="translate(112.211017, 50.497695)"><g><path d="M 15.421875 0.90625 C 11.878906 0.90625 9.0625 0 6.96875 -1.8125 C 4.882812 -3.625 3.84375 -6.132812 3.84375 -9.34375 C 3.84375 -12.132812 4.628906 -14.425781 6.203125 -16.21875 C 7.785156 -18.007812 10.53125 -19.234375 14.4375 -19.890625 L 23.15625 -21.34375 C 24.832031 -21.625 26.066406 -22.066406 26.859375 -22.671875 C 27.648438 -23.273438 28.046875 -24.179688 28.046875 -25.390625 C 28.046875 -26.972656 27.519531 -28.253906 26.46875 -29.234375 C 25.425781 -30.210938 23.394531 -30.703125 20.375 -30.703125 C 17.53125 -30.703125 15.398438 -30.128906 13.984375 -28.984375 C 12.566406 -27.847656 11.765625 -26.1875 11.578125 -24 L 4.609375 -24 C 4.648438 -27.71875 6.007812 -30.65625 8.6875 -32.8125 C 11.363281 -34.976562 15.164062 -36.0625 20.09375 -36.0625 C 24.925781 -36.0625 28.53125 -35.0625 30.90625 -33.0625 C 33.28125 -31.0625 34.46875 -28.457031 34.46875 -25.25 L 34.46875 -7.953125 C 34.46875 -6.648438 34.488281 -5.40625 34.53125 -4.21875 C 34.582031 -3.03125 34.675781 -1.625 34.8125 0 L 28.46875 0 C 28.320312 -1.34375 28.210938 -2.644531 28.140625 -3.90625 C 28.078125 -5.164062 28.046875 -6.492188 28.046875 -7.890625 C 27.578125 -6.441406 26.816406 -5.039062 25.765625 -3.6875 C 24.722656 -2.34375 23.351562 -1.238281 21.65625 -0.375 C 19.957031 0.476562 17.878906 0.90625 15.421875 0.90625 Z M 16.890625 -4.46875 C 19.347656 -4.46875 21.398438 -5.023438 23.046875 -6.140625 C 24.703125 -7.253906 25.945312 -8.753906 26.78125 -10.640625 C 27.625 -12.523438 28.046875 -14.628906 28.046875 -16.953125 L 28.046875 -19.046875 C 27.117188 -18.347656 26.117188 -17.820312 25.046875 -17.46875 C 23.972656 -17.125 22.90625 -16.835938 21.84375 -16.609375 L 17.015625 -15.484375 C 14.878906 -15.023438 13.3125 -14.335938 12.3125 -13.421875 C 11.3125 -12.515625 10.8125 -11.25 10.8125 -9.625 C 10.8125 -7.945312 11.367188 -6.664062 12.484375 -5.78125 C 13.597656 -4.90625 15.066406 -4.46875 16.890625 -4.46875 Z M 16.890625 -4.46875 "></path></g></g></g><g fill="#69bac5" fill-opacity="1"><g transform="translate(147.766419, 50.497695)"><g><path d="M 18.34375 0 C 15.550781 0 13.390625 -0.367188 11.859375 -1.109375 C 10.328125 -1.859375 9.269531 -2.988281 8.6875 -4.5 C 8.101562 -6.007812 7.8125 -7.925781 7.8125 -10.25 L 7.8125 -29.515625 L 1.1875 -29.515625 L 1.1875 -33.140625 L 8.4375 -35.65625 L 11.296875 -42.765625 L 14.796875 -42.765625 L 14.796875 -34.875 L 25.953125 -34.875 L 25.953125 -29.515625 L 14.796875 -29.515625 L 14.796875 -5.578125 L 25.25 -5.578125 L 25.25 0 Z M 18.34375 0 "></path></g></g></g><g fill="#69bac5" fill-opacity="1"><g transform="translate(172.515096, 50.497695)"><g><path d="M 3.984375 -40.109375 L 3.984375 -46.390625 L 12.765625 -46.390625 L 12.765625 -40.109375 Z M 4.890625 0 L 4.890625 -34.875 L 11.859375 -34.875 L 11.859375 0 Z M 4.890625 0 "></path></g></g></g><g fill="#69bac5" fill-opacity="1"><g transform="translate(186.108455, 50.497695)"><g><path d="M 30.5625 -34.875 L 37.328125 -34.875 L 24.0625 0 L 14.859375 0 L 1.609375 -34.875 L 8.796875 -34.875 L 19.671875 -6.203125 Z M 30.5625 -34.875 "></path></g></g></g><g fill="#69bac5" fill-opacity="1"><g transform="translate(221.873031, 50.497695)"><g><path d="M 21.0625 -4.046875 C 24.226562 -4.046875 26.585938 -4.671875 28.140625 -5.921875 C 29.703125 -7.179688 30.71875 -8.71875 31.1875 -10.53125 L 37.609375 -10.53125 C 37.460938 -9.320312 37.078125 -8.039062 36.453125 -6.6875 C 35.828125 -5.34375 34.875 -4.078125 33.59375 -2.890625 C 32.3125 -1.703125 30.632812 -0.738281 28.5625 0 C 26.5 0.738281 23.929688 1.109375 20.859375 1.109375 C 16.722656 1.109375 13.351562 0.273438 10.75 -1.390625 C 8.144531 -3.066406 6.234375 -5.3125 5.015625 -8.125 C 3.804688 -10.9375 3.203125 -14.066406 3.203125 -17.515625 C 3.203125 -20.910156 3.84375 -24 5.125 -26.78125 C 6.40625 -29.570312 8.359375 -31.804688 10.984375 -33.484375 C 13.617188 -35.160156 16.910156 -36 20.859375 -36 C 24.578125 -36 27.679688 -35.207031 30.171875 -33.625 C 32.660156 -32.039062 34.53125 -29.898438 35.78125 -27.203125 C 37.039062 -24.503906 37.671875 -21.484375 37.671875 -18.140625 C 37.671875 -17.671875 37.671875 -17.226562 37.671875 -16.8125 C 37.671875 -16.394531 37.625 -15.953125 37.53125 -15.484375 L 10.046875 -15.484375 C 10.234375 -12.554688 10.828125 -10.265625 11.828125 -8.609375 C 12.828125 -6.960938 14.113281 -5.789062 15.6875 -5.09375 C 17.269531 -4.394531 19.0625 -4.046875 21.0625 -4.046875 Z M 20.921875 -30.84375 C 17.953125 -30.84375 15.515625 -30.097656 13.609375 -28.609375 C 11.703125 -27.117188 10.535156 -24.441406 10.109375 -20.578125 L 30.96875 -20.578125 C 30.789062 -24.117188 29.851562 -26.710938 28.15625 -28.359375 C 26.457031 -30.015625 24.046875 -30.84375 20.921875 -30.84375 Z M 20.921875 -30.84375 "></path></g></g></g><g fill="#69bac5" fill-opacity="1"><g transform="translate(259.310905, 50.497695)"><g></g></g></g><g fill="#69bac5" fill-opacity="1"><g transform="translate(273.322613, 50.497695)"><g><path d="M 2.375 -11.65625 L 8.859375 -11.65625 C 8.992188 -9.507812 9.828125 -7.703125 11.359375 -6.234375 C 12.898438 -4.773438 15.367188 -4.046875 18.765625 -4.046875 C 21.878906 -4.046875 23.945312 -4.546875 24.96875 -5.546875 C 26 -6.546875 26.515625 -7.835938 26.515625 -9.421875 C 26.515625 -10.859375 26.09375 -11.984375 25.25 -12.796875 C 24.414062 -13.609375 23.066406 -14.15625 21.203125 -14.4375 L 12.5625 -15.765625 C 9.53125 -16.234375 7.210938 -17.28125 5.609375 -18.90625 C 4.003906 -20.53125 3.203125 -22.671875 3.203125 -25.328125 C 3.203125 -28.671875 4.484375 -31.296875 7.046875 -33.203125 C 9.609375 -35.109375 13.164062 -36.0625 17.71875 -36.0625 C 22.226562 -36.0625 25.804688 -35.035156 28.453125 -32.984375 C 31.109375 -30.941406 32.554688 -28.269531 32.796875 -24.96875 L 25.8125 -24.96875 C 25.625 -26.601562 24.867188 -28 23.546875 -29.15625 C 22.222656 -30.320312 20.210938 -30.90625 17.515625 -30.90625 C 14.816406 -30.90625 12.882812 -30.425781 11.71875 -29.46875 C 10.550781 -28.519531 9.96875 -27.347656 9.96875 -25.953125 C 9.96875 -24.929688 10.304688 -24.007812 10.984375 -23.1875 C 11.660156 -22.375 12.929688 -21.832031 14.796875 -21.5625 L 22.328125 -20.4375 C 25.210938 -20.019531 27.457031 -19.3125 29.0625 -18.3125 C 30.664062 -17.3125 31.78125 -16.085938 32.40625 -14.640625 C 33.03125 -13.203125 33.34375 -11.578125 33.34375 -9.765625 C 33.34375 -6.179688 32.144531 -3.472656 29.75 -1.640625 C 27.351562 0.191406 23.625 1.109375 18.5625 1.109375 C 14.75 1.109375 11.644531 0.539062 9.25 -0.59375 C 6.851562 -1.726562 5.109375 -3.257812 4.015625 -5.1875 C 2.921875 -7.125 2.375 -9.28125 2.375 -11.65625 Z M 2.375 -11.65625 "></path></g></g></g><g fill="#69bac5" fill-opacity="1"><g transform="translate(306.158894, 50.497695)"><g><path d="M 18.34375 0 C 15.550781 0 13.390625 -0.367188 11.859375 -1.109375 C 10.328125 -1.859375 9.269531 -2.988281 8.6875 -4.5 C 8.101562 -6.007812 7.8125 -7.925781 7.8125 -10.25 L 7.8125 -29.515625 L 1.1875 -29.515625 L 1.1875 -33.140625 L 8.4375 -35.65625 L 11.296875 -42.765625 L 14.796875 -42.765625 L 14.796875 -34.875 L 25.953125 -34.875 L 25.953125 -29.515625 L 14.796875 -29.515625 L 14.796875 -5.578125 L 25.25 -5.578125 L 25.25 0 Z M 18.34375 0 "></path></g></g></g><g fill="#69bac5" fill-opacity="1"><g transform="translate(330.907571, 50.497695)"><g><path d="M 29.515625 -34.875 L 36.484375 -34.875 L 36.484375 0 L 29.515625 0 L 29.515625 -7.609375 C 28.484375 -5.046875 26.988281 -2.953125 25.03125 -1.328125 C 23.082031 0.296875 20.457031 1.109375 17.15625 1.109375 C 12.507812 1.109375 9.1875 -0.117188 7.1875 -2.578125 C 5.1875 -5.046875 4.1875 -8.554688 4.1875 -13.109375 L 4.1875 -34.875 L 11.15625 -34.875 L 11.15625 -13.75 C 11.15625 -11.320312 11.515625 -9.445312 12.234375 -8.125 C 12.960938 -6.800781 13.941406 -5.894531 15.171875 -5.40625 C 16.398438 -4.914062 17.785156 -4.671875 19.328125 -4.671875 C 22.441406 -4.671875 24.914062 -5.945312 26.75 -8.5 C 28.59375 -11.0625 29.515625 -14.945312 29.515625 -20.15625 Z M 29.515625 -34.875 "></path></g></g></g><g fill="#69bac5" fill-opacity="1"><g transform="translate(369.112337, 50.497695)"><g><path d="M 32.375 -48.828125 L 39.34375 -48.828125 L 39.34375 0 L 32.375 0 L 32.375 -6 C 31.207031 -3.71875 29.550781 -1.960938 27.40625 -0.734375 C 25.269531 0.492188 22.625 1.109375 19.46875 1.109375 C 15.75 1.109375 12.675781 0.273438 10.25 -1.390625 C 7.832031 -3.066406 6.050781 -5.3125 4.90625 -8.125 C 3.769531 -10.9375 3.203125 -14.039062 3.203125 -17.4375 C 3.203125 -20.882812 3.769531 -24 4.90625 -26.78125 C 6.050781 -29.570312 7.832031 -31.804688 10.25 -33.484375 C 12.675781 -35.160156 15.75 -36 19.46875 -36 C 22.625 -36 25.269531 -35.378906 27.40625 -34.140625 C 29.550781 -32.910156 31.207031 -31.160156 32.375 -28.890625 Z M 20.921875 -4.46875 C 24.597656 -4.46875 27.425781 -5.515625 29.40625 -7.609375 C 31.382812 -9.703125 32.375 -12.976562 32.375 -17.4375 C 32.375 -21.90625 31.382812 -25.1875 29.40625 -27.28125 C 27.425781 -29.375 24.597656 -30.421875 20.921875 -30.421875 C 17.066406 -30.421875 14.320312 -29.335938 12.6875 -27.171875 C 11.0625 -25.003906 10.25 -21.757812 10.25 -17.4375 C 10.25 -13.113281 11.0625 -9.867188 12.6875 -7.703125 C 14.320312 -5.546875 17.066406 -4.46875 20.921875 -4.46875 Z M 20.921875 -4.46875 "></path></g></g></g><g fill="#69bac5" fill-opacity="1"><g transform="translate(410.036223, 50.497695)"><g><path d="M 3.984375 -40.109375 L 3.984375 -46.390625 L 12.765625 -46.390625 L 12.765625 -40.109375 Z M 4.890625 0 L 4.890625 -34.875 L 11.859375 -34.875 L 11.859375 0 Z M 4.890625 0 "></path></g></g></g><g fill="#69bac5" fill-opacity="1"><g transform="translate(423.629582, 50.497695)"><g><path d="M 21.203125 1.109375 C 17.160156 1.109375 13.800781 0.273438 11.125 -1.390625 C 8.445312 -3.066406 6.457031 -5.3125 5.15625 -8.125 C 3.851562 -10.9375 3.203125 -14.066406 3.203125 -17.515625 C 3.203125 -20.910156 3.851562 -24 5.15625 -26.78125 C 6.457031 -29.570312 8.445312 -31.804688 11.125 -33.484375 C 13.800781 -35.160156 17.160156 -36 21.203125 -36 C 25.253906 -36 28.601562 -35.160156 31.25 -33.484375 C 33.90625 -31.804688 35.894531 -29.570312 37.21875 -26.78125 C 38.539062 -24 39.203125 -20.910156 39.203125 -17.515625 C 39.203125 -14.117188 38.539062 -11 37.21875 -8.15625 C 35.894531 -5.320312 33.90625 -3.066406 31.25 -1.390625 C 28.601562 0.273438 25.253906 1.109375 21.203125 1.109375 Z M 10.25 -17.4375 C 10.25 -12.789062 11.132812 -9.46875 12.90625 -7.46875 C 14.675781 -5.46875 17.441406 -4.46875 21.203125 -4.46875 C 24.972656 -4.46875 27.738281 -5.46875 29.5 -7.46875 C 31.269531 -9.46875 32.15625 -12.789062 32.15625 -17.4375 C 32.15625 -22.09375 31.269531 -25.421875 29.5 -27.421875 C 27.738281 -29.421875 24.972656 -30.421875 21.203125 -30.421875 C 17.441406 -30.421875 14.675781 -29.421875 12.90625 -27.421875 C 11.132812 -25.421875 10.25 -22.09375 10.25 -17.4375 Z M 10.25 -17.4375 "></path></g></g></g></g></g><g clip-path="url(#dffce73409)"><g clip-path="url(#99b1af44f3)"><g transform="matrix(1, 0, 0, 1, 1024, 832)"><g clip-path="url(#7b8841a128)"><g clip-path="url(#2c90735ec6)"><g clip-path="url(#23c7bf15eb)"><path fill="#2a1f14" d="M 0.160156 0.15625 L 99.957031 0.15625 L 99.957031 99.957031 L 0.160156 99.957031 Z M 0.160156 0.15625 " fill-opacity="1" fill-rule="nonzero"></path></g></g></g></g></g></g><g clip-path="url(#f0672be008)"><g clip-path="url(#6f19979832)"><path stroke-linecap="butt" transform="matrix(0.75, 0, 0, 0.75, 1024.159505, 832.157596)" fill="none" stroke-linejoin="miter" d="M 66.532124 -0.0017951 C 29.787329 -0.0017951 0.000868152 29.784666 0.000868152 66.529461 C 0.000868152 103.274255 29.787329 133.060716 66.532124 133.060716 C 103.276919 133.060716 133.06338 103.274255 133.06338 66.529461 C 133.06338 29.784666 103.276919 -0.0017951 66.532124 -0.0017951 Z M 66.532124 -0.0017951 " stroke="#d2976f" stroke-width="14" stroke-opacity="1" stroke-miterlimit="4"></path></g></g><g transform="matrix(1, 0, 0, 1, 1112, 539)"><g clip-path="url(#7a58cfe772)"><g fill="#69bac5" fill-opacity="1"><g transform="translate(2.218833, 194.268872)"><g><path d="M 89.203125 -46.171875 C 89.203125 -55.128906 86.125 -62.96875 79.96875 -69.6875 C 73.664062 -76.40625 65.898438 -79.765625 56.671875 -79.765625 C 47.429688 -79.765625 39.734375 -76.40625 33.578125 -69.6875 C 27.285156 -62.96875 24.140625 -55.128906 24.140625 -46.171875 C 24.140625 -37.222656 27.285156 -29.390625 33.578125 -22.671875 C 39.734375 -15.953125 47.429688 -12.59375 56.671875 -12.59375 C 65.898438 -12.59375 73.664062 -15.953125 79.96875 -22.671875 C 86.125 -29.390625 89.203125 -37.222656 89.203125 -46.171875 Z M 103.890625 0 L 89.203125 0 L 89.203125 -15.734375 C 88.359375 -14.617188 87.519531 -13.570312 86.6875 -12.59375 C 77.875 -2.800781 67.097656 2.09375 54.359375 2.09375 C 41.628906 2.09375 30.925781 -2.800781 22.25 -12.59375 C 13.707031 -22.101562 9.4375 -33.296875 9.4375 -46.171875 C 9.4375 -59.046875 13.707031 -70.242188 22.25 -79.765625 C 30.925781 -89.554688 41.628906 -94.453125 54.359375 -94.453125 C 67.097656 -94.453125 77.875 -89.554688 86.6875 -79.765625 C 87.519531 -78.785156 88.359375 -77.734375 89.203125 -76.609375 L 89.203125 -92.359375 L 103.890625 -92.359375 Z M 103.890625 0 "></path></g></g></g><g fill="#69bac5" fill-opacity="1"><g transform="translate(121.856591, 194.268872)"><g><path d="M 30.640625 -124.25 C 32.460938 -122.4375 33.375 -120.269531 33.375 -117.75 C 33.375 -115.09375 32.460938 -112.851562 30.640625 -111.03125 C 28.828125 -109.207031 26.660156 -108.296875 24.140625 -108.296875 C 21.484375 -108.296875 19.242188 -109.207031 17.421875 -111.03125 C 15.597656 -112.851562 14.6875 -115.09375 14.6875 -117.75 C 14.6875 -120.269531 15.597656 -122.4375 17.421875 -124.25 C 19.242188 -126.070312 21.484375 -126.984375 24.140625 -126.984375 C 26.660156 -126.984375 28.828125 -126.070312 30.640625 -124.25 Z M 31.484375 0 L 16.796875 0 L 16.796875 -92.359375 L 31.484375 -92.359375 Z M 31.484375 0 "></path></g></g></g></g></g><g transform="matrix(1, 0, 0, 1, 1065, 552)"><g clip-path="url(#9a6115fa2a)"><g fill="#69bac5" fill-opacity="1"><g transform="translate(1.881128, 184.698611)"><g><path d="M 25.578125 1.921875 C 22.628906 1.921875 20.066406 0.832031 17.890625 -1.34375 C 15.578125 -3.394531 14.421875 -5.894531 14.421875 -8.84375 C 14.421875 -11.789062 15.507812 -14.351562 17.6875 -16.53125 C 19.863281 -18.71875 22.492188 -19.8125 25.578125 -19.8125 C 28.648438 -19.8125 31.34375 -18.785156 33.65625 -16.734375 C 35.832031 -14.546875 36.921875 -11.976562 36.921875 -9.03125 C 36.921875 -5.957031 35.765625 -3.394531 33.453125 -1.34375 C 31.148438 0.832031 28.523438 1.921875 25.578125 1.921875 Z M 25.578125 1.921875 "></path></g></g></g></g></g><g transform="matrix(1, 0, 0, 1, 217, 586)"><g clip-path="url(#c9ba9d2867)"><g fill="#2a1f14" fill-opacity="1"><g transform="translate(1.792196, 147.162138)"><g><path d="M 153.3125 -0.828125 C 154.132812 -0.828125 154.507812 -0.585938 154.4375 -0.109375 C 154.375 0.367188 154 0.609375 153.3125 0.609375 C 152.082031 0.472656 150.265625 0.335938 147.859375 0.203125 C 145.460938 0.0664062 143.515625 0 142.015625 0 L 115.09375 0 C 113.71875 0 111.832031 0.0664062 109.4375 0.203125 C 107.039062 0.335938 105.15625 0.472656 103.78125 0.609375 C 103.09375 0.609375 102.710938 0.367188 102.640625 -0.109375 C 102.578125 -0.585938 102.957031 -0.828125 103.78125 -0.828125 C 108.4375 -1.097656 112.066406 -2.460938 114.671875 -4.921875 C 117.273438 -7.390625 118.578125 -12.1875 118.578125 -19.3125 L 118.578125 -77.0625 C 118.578125 -78.300781 118.367188 -79.257812 117.953125 -79.9375 C 117.546875 -80.625 116.59375 -80.628906 115.09375 -79.953125 C 103.851562 -75.148438 92.34375 -71.378906 80.5625 -68.640625 C 68.78125 -65.898438 57.410156 -64.253906 46.453125 -63.703125 C 44.941406 -63.566406 43.976562 -62.984375 43.5625 -61.953125 C 43.15625 -60.929688 42.953125 -59.804688 42.953125 -58.578125 L 42.953125 -19.3125 C 42.953125 -12.1875 44.285156 -7.390625 46.953125 -4.921875 C 49.628906 -2.460938 53.226562 -1.097656 57.75 -0.828125 C 58.570312 -0.828125 58.945312 -0.585938 58.875 -0.109375 C 58.8125 0.367188 58.4375 0.609375 57.75 0.609375 C 56.519531 0.472656 54.738281 0.335938 52.40625 0.203125 C 50.070312 0.0664062 48.15625 0 46.65625 0 L 19.53125 0 C 18.15625 0 16.269531 0.0664062 13.875 0.203125 C 11.476562 0.335938 9.660156 0.472656 8.421875 0.609375 C 7.742188 0.609375 7.332031 0.367188 7.1875 -0.109375 C 7.050781 -0.585938 7.460938 -0.828125 8.421875 -0.828125 C 12.941406 -1.097656 16.535156 -2.460938 19.203125 -4.921875 C 21.878906 -7.390625 23.21875 -12.1875 23.21875 -19.3125 L 23.21875 -124.546875 C 23.21875 -131.671875 21.878906 -136.5 19.203125 -139.03125 C 16.535156 -141.5625 12.941406 -142.894531 8.421875 -143.03125 C 7.460938 -143.03125 7.050781 -143.269531 7.1875 -143.75 C 7.332031 -144.238281 7.742188 -144.484375 8.421875 -144.484375 C 9.660156 -144.335938 11.476562 -144.195312 13.875 -144.0625 C 16.269531 -143.925781 18.15625 -143.859375 19.53125 -143.859375 L 46.65625 -143.859375 C 48.15625 -143.859375 50.070312 -143.925781 52.40625 -144.0625 C 54.738281 -144.195312 56.519531 -144.335938 57.75 -144.484375 C 58.4375 -144.484375 58.8125 -144.238281 58.875 -143.75 C 58.945312 -143.269531 58.570312 -143.03125 57.75 -143.03125 C 53.226562 -142.894531 49.628906 -141.5625 46.953125 -139.03125 C 44.285156 -136.5 42.953125 -131.671875 42.953125 -124.546875 L 42.953125 -67.609375 C 43.359375 -65.828125 44.453125 -65.007812 46.234375 -65.15625 C 57.203125 -65.695312 68.609375 -67.367188 80.453125 -70.171875 C 92.304688 -72.984375 103.785156 -76.722656 114.890625 -81.390625 C 116.390625 -82.066406 117.378906 -82.816406 117.859375 -83.640625 C 118.335938 -84.460938 118.578125 -85.5625 118.578125 -86.9375 L 118.578125 -124.546875 C 118.578125 -131.671875 117.273438 -136.5 114.671875 -139.03125 C 112.066406 -141.5625 108.4375 -142.894531 103.78125 -143.03125 C 102.957031 -143.03125 102.578125 -143.269531 102.640625 -143.75 C 102.710938 -144.238281 103.09375 -144.484375 103.78125 -144.484375 C 105.15625 -144.335938 107.039062 -144.195312 109.4375 -144.0625 C 111.832031 -143.925781 113.71875 -143.859375 115.09375 -143.859375 L 142.015625 -143.859375 C 143.515625 -143.859375 145.460938 -143.925781 147.859375 -144.0625 C 150.265625 -144.195312 152.082031 -144.335938 153.3125 -144.484375 C 154 -144.484375 154.375 -144.238281 154.4375 -143.75 C 154.507812 -143.269531 154.132812 -143.03125 153.3125 -143.03125 C 148.65625 -142.894531 145.023438 -141.5625 142.421875 -139.03125 C 139.816406 -136.5 138.515625 -131.671875 138.515625 -124.546875 L 138.515625 -19.3125 C 138.515625 -12.1875 139.816406 -7.390625 142.421875 -4.921875 C 145.023438 -2.460938 148.65625 -1.097656 153.3125 -0.828125 Z M 153.3125 -0.828125 "></path></g></g></g><g fill="#2a1f14" fill-opacity="1"><g transform="translate(160.035432, 147.162138)"><g><path d="M 92.6875 -17.671875 C 92.820312 -17.941406 93.0625 -17.972656 93.40625 -17.765625 C 93.75 -17.566406 93.785156 -17.191406 93.515625 -16.640625 C 88.171875 -9.929688 81.9375 -5 74.8125 -1.84375 C 67.6875 1.300781 60.082031 2.875 52 2.875 C 43.632812 2.875 35.925781 0.921875 28.875 -2.984375 C 21.820312 -6.890625 16.132812 -12.4375 11.8125 -19.625 C 7.5 -26.820312 5.34375 -35.210938 5.34375 -44.796875 C 5.34375 -54.660156 7.632812 -63.429688 12.21875 -71.109375 C 16.8125 -78.785156 22.976562 -84.8125 30.71875 -89.1875 C 38.46875 -93.570312 47 -95.765625 56.3125 -95.765625 C 64.394531 -95.765625 71.519531 -93.914062 77.6875 -90.21875 C 83.851562 -86.519531 88.164062 -81.242188 90.625 -74.390625 C 93.09375 -67.546875 92.820312 -59.394531 89.8125 -49.9375 C 82.550781 -49.800781 73.128906 -49.59375 61.546875 -49.3125 C 49.972656 -49.039062 36.648438 -48.703125 21.578125 -48.296875 C 23.359375 -39.941406 26.710938 -32.644531 31.640625 -26.40625 C 36.578125 -20.175781 42.226562 -15.378906 48.59375 -12.015625 C 54.96875 -8.660156 61.171875 -6.984375 67.203125 -6.984375 C 69.390625 -6.984375 71.988281 -7.222656 75 -7.703125 C 78.019531 -8.179688 81.101562 -9.175781 84.25 -10.6875 C 87.40625 -12.195312 90.21875 -14.523438 92.6875 -17.671875 Z M 48.5 -92.28125 C 39.59375 -92.28125 32.707031 -89.609375 27.84375 -84.265625 C 22.976562 -78.921875 20.546875 -70.695312 20.546875 -59.59375 C 20.546875 -57.8125 20.613281 -56.097656 20.75 -54.453125 C 20.894531 -52.816406 21.101562 -51.175781 21.375 -49.53125 C 31.238281 -49.800781 40.585938 -50.140625 49.421875 -50.546875 C 58.265625 -50.960938 66.109375 -51.238281 72.953125 -51.375 C 74.597656 -54.9375 75.039062 -59.046875 74.28125 -63.703125 C 73.53125 -68.367188 71.890625 -72.859375 69.359375 -77.171875 C 66.828125 -81.484375 63.742188 -85.078125 60.109375 -87.953125 C 56.484375 -90.835938 52.613281 -92.28125 48.5 -92.28125 Z M 48.5 -92.28125 "></path></g></g></g><g fill="#2a1f14" fill-opacity="1"><g transform="translate(258.47504, 147.162138)"><g><path d="M 131.734375 -31.859375 C 131.734375 -32.535156 132.003906 -32.910156 132.546875 -32.984375 C 133.097656 -33.054688 133.375 -32.679688 133.375 -31.859375 C 133.375 -24.046875 132.3125 -17.601562 130.1875 -12.53125 C 128.070312 -7.46875 125.367188 -3.664062 122.078125 -1.125 C 118.785156 1.40625 115.425781 2.671875 112 2.671875 C 107.894531 2.671875 104.503906 0.957031 101.828125 -2.46875 C 99.160156 -5.894531 97.070312 -10.894531 95.5625 -17.46875 L 82.625 -70.90625 C 81.25 -76.382812 79.363281 -80.59375 76.96875 -83.53125 C 74.570312 -86.476562 70.148438 -87.953125 63.703125 -87.953125 C 56.992188 -87.953125 51.171875 -85.109375 46.234375 -79.421875 C 41.304688 -73.742188 38.429688 -65.765625 37.609375 -55.484375 L 37.609375 -15.828125 C 37.609375 -10.347656 38.632812 -6.546875 40.6875 -4.421875 C 42.75 -2.296875 45.832031 -1.164062 49.9375 -1.03125 C 50.625 -1.03125 50.96875 -0.789062 50.96875 -0.3125 C 50.96875 0.164062 50.625 0.40625 49.9375 0.40625 C 47.75 0.269531 44.734375 0.164062 40.890625 0.09375 C 37.054688 0.03125 32.984375 0 28.671875 0 C 24.359375 0 20.25 0.03125 16.34375 0.09375 C 12.4375 0.164062 9.316406 0.269531 6.984375 0.40625 C 6.296875 0.40625 5.953125 0.164062 5.953125 -0.3125 C 5.953125 -0.789062 6.296875 -1.03125 6.984375 -1.03125 C 10.960938 -1.03125 13.976562 -1.847656 16.03125 -3.484375 C 18.082031 -5.128906 19.109375 -9.3125 19.109375 -16.03125 L 19.109375 -70.28125 C 19.109375 -75.21875 18.25 -78.710938 16.53125 -80.765625 C 14.820312 -82.816406 11.503906 -83.4375 6.578125 -82.625 C 6.023438 -82.476562 5.710938 -82.578125 5.640625 -82.921875 C 5.578125 -83.265625 5.753906 -83.503906 6.171875 -83.640625 C 11.097656 -84.878906 16.578125 -86.523438 22.609375 -88.578125 C 28.640625 -90.628906 33.570312 -92.957031 37.40625 -95.5625 C 38.09375 -95.976562 38.640625 -96.113281 39.046875 -95.96875 C 39.460938 -95.832031 39.671875 -95.492188 39.671875 -94.953125 C 39.117188 -90.972656 38.703125 -87.578125 38.421875 -84.765625 C 38.148438 -81.960938 37.945312 -79.257812 37.8125 -76.65625 C 37.675781 -74.050781 37.609375 -71.101562 37.609375 -67.8125 C 39.117188 -72.882812 41.582031 -77.507812 45 -81.6875 C 48.425781 -85.863281 52.535156 -89.253906 57.328125 -91.859375 C 62.128906 -94.460938 67.203125 -95.765625 72.546875 -95.765625 C 81.859375 -95.765625 88.535156 -93.707031 92.578125 -89.59375 C 96.617188 -85.488281 99.53125 -79.671875 101.3125 -72.140625 L 114.0625 -20.546875 C 115.019531 -16.984375 116.113281 -14.101562 117.34375 -11.90625 C 118.582031 -9.71875 120.226562 -8.625 122.28125 -8.625 C 124.195312 -8.625 126.285156 -10.40625 128.546875 -13.96875 C 130.804688 -17.53125 131.867188 -23.492188 131.734375 -31.859375 Z M 131.734375 -31.859375 "></path></g></g></g><g fill="#2a1f14" fill-opacity="1"><g transform="translate(385.686156, 147.162138)"><g><path d="M 65.15625 -95.765625 C 68.988281 -95.765625 72.648438 -95.046875 76.140625 -93.609375 C 79.640625 -92.171875 82.378906 -90.285156 84.359375 -87.953125 C 86.347656 -85.628906 86.929688 -82.960938 86.109375 -79.953125 L 77.484375 -47.890625 C 77.347656 -47.066406 77.070312 -46.722656 76.65625 -46.859375 C 76.25 -46.992188 76.113281 -47.472656 76.25 -48.296875 C 77.75 -56.515625 77.742188 -63.054688 76.234375 -67.921875 C 74.734375 -72.785156 72.234375 -76.3125 68.734375 -78.5 C 65.242188 -80.695312 61.238281 -81.796875 56.71875 -81.796875 C 51.238281 -81.796875 47.128906 -79.875 44.390625 -76.03125 C 41.648438 -72.195312 39.832031 -67.398438 38.9375 -61.640625 C 38.050781 -55.890625 37.609375 -50.140625 37.609375 -44.390625 L 37.609375 -15.828125 C 37.609375 -10.347656 38.632812 -6.546875 40.6875 -4.421875 C 42.75 -2.296875 45.832031 -1.164062 49.9375 -1.03125 C 50.625 -1.03125 50.96875 -0.789062 50.96875 -0.3125 C 50.96875 0.164062 50.625 0.40625 49.9375 0.40625 C 47.75 0.269531 44.734375 0.164062 40.890625 0.09375 C 37.054688 0.03125 32.984375 0 28.671875 0 C 24.359375 0 20.25 0.03125 16.34375 0.09375 C 12.4375 0.164062 9.316406 0.269531 6.984375 0.40625 C 6.296875 0.40625 5.953125 0.164062 5.953125 -0.3125 C 5.953125 -0.789062 6.296875 -1.03125 6.984375 -1.03125 C 10.960938 -1.03125 13.976562 -1.847656 16.03125 -3.484375 C 18.082031 -5.128906 19.109375 -9.3125 19.109375 -16.03125 L 19.109375 -70.28125 C 19.109375 -75.21875 18.25 -78.710938 16.53125 -80.765625 C 14.820312 -82.816406 11.503906 -83.4375 6.578125 -82.625 C 6.023438 -82.476562 5.710938 -82.578125 5.640625 -82.921875 C 5.578125 -83.265625 5.753906 -83.503906 6.171875 -83.640625 C 11.097656 -84.878906 16.578125 -86.523438 22.609375 -88.578125 C 28.640625 -90.628906 33.570312 -92.957031 37.40625 -95.5625 C 38.09375 -95.976562 38.640625 -96.113281 39.046875 -95.96875 C 39.460938 -95.832031 39.671875 -95.492188 39.671875 -94.953125 C 39.117188 -90.835938 38.703125 -87.34375 38.421875 -84.46875 C 38.148438 -81.59375 37.945312 -78.816406 37.8125 -76.140625 C 37.675781 -73.472656 37.609375 -70.359375 37.609375 -66.796875 L 37.609375 -63.09375 C 38.566406 -67.613281 40.039062 -72.40625 42.03125 -77.46875 C 44.019531 -82.539062 46.863281 -86.859375 50.5625 -90.421875 C 54.257812 -93.984375 59.125 -95.765625 65.15625 -95.765625 Z M 65.15625 -95.765625 "></path></g></g></g><g fill="#2a1f14" fill-opacity="1"><g transform="translate(473.233651, 147.162138)"><g><path d="M 25.484375 -119.8125 C 21.648438 -119.8125 18.671875 -120.734375 16.546875 -122.578125 C 14.421875 -124.429688 13.5625 -126.660156 13.96875 -129.265625 C 14.25 -132.003906 15.757812 -134.296875 18.5 -136.140625 C 21.238281 -137.992188 24.660156 -138.921875 28.765625 -138.921875 C 32.742188 -138.921875 35.796875 -137.992188 37.921875 -136.140625 C 40.046875 -134.296875 40.898438 -132.003906 40.484375 -129.265625 C 40.078125 -126.660156 38.503906 -124.429688 35.765625 -122.578125 C 33.023438 -120.734375 29.597656 -119.8125 25.484375 -119.8125 Z M 37.609375 -66.796875 L 37.609375 -18.296875 C 37.609375 -13.628906 38.632812 -9.617188 40.6875 -6.265625 C 42.75 -2.910156 45.832031 -1.164062 49.9375 -1.03125 C 50.625 -1.03125 50.96875 -0.789062 50.96875 -0.3125 C 50.96875 0.164062 50.625 0.40625 49.9375 0.40625 C 48.019531 0.269531 45.109375 0.164062 41.203125 0.09375 C 37.296875 0.03125 33.046875 0 28.453125 0 C 23.867188 0 19.625 0.03125 15.71875 0.09375 C 11.8125 0.164062 8.898438 0.269531 6.984375 0.40625 C 6.296875 0.40625 5.953125 0.164062 5.953125 -0.3125 C 5.953125 -0.789062 6.296875 -1.03125 6.984375 -1.03125 C 10.960938 -1.03125 13.976562 -2.398438 16.03125 -5.140625 C 18.082031 -7.878906 19.109375 -12.265625 19.109375 -18.296875 L 19.109375 -70.28125 C 19.109375 -75.21875 18.25 -78.710938 16.53125 -80.765625 C 14.820312 -82.816406 11.503906 -83.4375 6.578125 -82.625 C 6.023438 -82.476562 5.710938 -82.578125 5.640625 -82.921875 C 5.578125 -83.265625 5.753906 -83.503906 6.171875 -83.640625 C 11.097656 -84.878906 16.578125 -86.523438 22.609375 -88.578125 C 28.640625 -90.628906 33.570312 -92.957031 37.40625 -95.5625 C 38.09375 -95.976562 38.640625 -96.113281 39.046875 -95.96875 C 39.460938 -95.832031 39.671875 -95.492188 39.671875 -94.953125 C 39.117188 -90.835938 38.703125 -87.34375 38.421875 -84.46875 C 38.148438 -81.59375 37.945312 -78.816406 37.8125 -76.140625 C 37.675781 -73.472656 37.609375 -70.359375 37.609375 -66.796875 Z M 37.609375 -66.796875 "></path></g></g></g><g fill="#2a1f14" fill-opacity="1"><g transform="translate(529.749126, 147.162138)"><g><path d="M 92.6875 -17.671875 C 92.820312 -17.941406 93.0625 -17.972656 93.40625 -17.765625 C 93.75 -17.566406 93.785156 -17.191406 93.515625 -16.640625 C 88.171875 -9.929688 81.9375 -5 74.8125 -1.84375 C 67.6875 1.300781 60.082031 2.875 52 2.875 C 43.632812 2.875 35.925781 0.921875 28.875 -2.984375 C 21.820312 -6.890625 16.132812 -12.4375 11.8125 -19.625 C 7.5 -26.820312 5.34375 -35.210938 5.34375 -44.796875 C 5.34375 -54.660156 7.632812 -63.429688 12.21875 -71.109375 C 16.8125 -78.785156 22.976562 -84.8125 30.71875 -89.1875 C 38.46875 -93.570312 47 -95.765625 56.3125 -95.765625 C 64.394531 -95.765625 71.519531 -93.914062 77.6875 -90.21875 C 83.851562 -86.519531 88.164062 -81.242188 90.625 -74.390625 C 93.09375 -67.546875 92.820312 -59.394531 89.8125 -49.9375 C 82.550781 -49.800781 73.128906 -49.59375 61.546875 -49.3125 C 49.972656 -49.039062 36.648438 -48.703125 21.578125 -48.296875 C 23.359375 -39.941406 26.710938 -32.644531 31.640625 -26.40625 C 36.578125 -20.175781 42.226562 -15.378906 48.59375 -12.015625 C 54.96875 -8.660156 61.171875 -6.984375 67.203125 -6.984375 C 69.390625 -6.984375 71.988281 -7.222656 75 -7.703125 C 78.019531 -8.179688 81.101562 -9.175781 84.25 -10.6875 C 87.40625 -12.195312 90.21875 -14.523438 92.6875 -17.671875 Z M 48.5 -92.28125 C 39.59375 -92.28125 32.707031 -89.609375 27.84375 -84.265625 C 22.976562 -78.921875 20.546875 -70.695312 20.546875 -59.59375 C 20.546875 -57.8125 20.613281 -56.097656 20.75 -54.453125 C 20.894531 -52.816406 21.101562 -51.175781 21.375 -49.53125 C 31.238281 -49.800781 40.585938 -50.140625 49.421875 -50.546875 C 58.265625 -50.960938 66.109375 -51.238281 72.953125 -51.375 C 74.597656 -54.9375 75.039062 -59.046875 74.28125 -63.703125 C 73.53125 -68.367188 71.890625 -72.859375 69.359375 -77.171875 C 66.828125 -81.484375 63.742188 -85.078125 60.109375 -87.953125 C 56.484375 -90.835938 52.613281 -92.28125 48.5 -92.28125 Z M 48.5 -92.28125 "></path></g></g></g><g fill="#2a1f14" fill-opacity="1"><g transform="translate(628.188745, 147.162138)"><g><path d="M 33.90625 2.875 C 28.695312 2.875 24.414062 0.890625 21.0625 -3.078125 C 17.707031 -7.054688 16.03125 -12.195312 16.03125 -18.5 L 16.03125 -85.703125 C 16.03125 -87.203125 15.859375 -88.535156 15.515625 -89.703125 C 15.171875 -90.867188 13.90625 -91.453125 11.71875 -91.453125 L 4.734375 -91.453125 C 4.046875 -91.453125 3.703125 -91.625 3.703125 -91.96875 C 3.703125 -92.3125 3.972656 -92.550781 4.515625 -92.6875 C 11.640625 -93.914062 17.90625 -96.894531 23.3125 -101.625 C 28.726562 -106.351562 32.328125 -112.757812 34.109375 -120.84375 C 34.390625 -121.664062 34.664062 -122.078125 34.9375 -122.078125 C 35.34375 -122.078125 35.546875 -121.664062 35.546875 -120.84375 C 35.410156 -116.320312 35.304688 -112.28125 35.234375 -108.71875 C 35.171875 -105.15625 35.003906 -101.113281 34.734375 -96.59375 C 34.597656 -95.082031 34.90625 -94.050781 35.65625 -93.5 C 36.40625 -92.957031 37.742188 -92.6875 39.671875 -92.6875 L 59.390625 -92.6875 C 59.671875 -92.6875 59.773438 -92.476562 59.703125 -92.0625 C 59.628906 -91.65625 59.253906 -91.453125 58.578125 -91.453125 L 40.484375 -91.453125 C 38.160156 -91.453125 36.585938 -91.070312 35.765625 -90.3125 C 34.941406 -89.5625 34.53125 -88.09375 34.53125 -85.90625 L 34.53125 -23.015625 C 34.53125 -17.128906 35.96875 -12.914062 38.84375 -10.375 C 41.71875 -7.84375 45.242188 -7.191406 49.421875 -8.421875 C 53.597656 -9.660156 57.609375 -12.878906 61.453125 -18.078125 C 61.992188 -18.765625 62.398438 -19.003906 62.671875 -18.796875 C 62.953125 -18.597656 62.890625 -18.15625 62.484375 -17.46875 C 57.546875 -10.34375 52.609375 -5.171875 47.671875 -1.953125 C 42.742188 1.265625 38.15625 2.875 33.90625 2.875 Z M 33.90625 2.875 "></path></g></g></g><g fill="#2a1f14" fill-opacity="1"><g transform="translate(691.075028, 147.162138)"><g><path d="M 33.90625 2.875 C 28.695312 2.875 24.414062 0.890625 21.0625 -3.078125 C 17.707031 -7.054688 16.03125 -12.195312 16.03125 -18.5 L 16.03125 -85.703125 C 16.03125 -87.203125 15.859375 -88.535156 15.515625 -89.703125 C 15.171875 -90.867188 13.90625 -91.453125 11.71875 -91.453125 L 4.734375 -91.453125 C 4.046875 -91.453125 3.703125 -91.625 3.703125 -91.96875 C 3.703125 -92.3125 3.972656 -92.550781 4.515625 -92.6875 C 11.640625 -93.914062 17.90625 -96.894531 23.3125 -101.625 C 28.726562 -106.351562 32.328125 -112.757812 34.109375 -120.84375 C 34.390625 -121.664062 34.664062 -122.078125 34.9375 -122.078125 C 35.34375 -122.078125 35.546875 -121.664062 35.546875 -120.84375 C 35.410156 -116.320312 35.304688 -112.28125 35.234375 -108.71875 C 35.171875 -105.15625 35.003906 -101.113281 34.734375 -96.59375 C 34.597656 -95.082031 34.90625 -94.050781 35.65625 -93.5 C 36.40625 -92.957031 37.742188 -92.6875 39.671875 -92.6875 L 59.390625 -92.6875 C 59.671875 -92.6875 59.773438 -92.476562 59.703125 -92.0625 C 59.628906 -91.65625 59.253906 -91.453125 58.578125 -91.453125 L 40.484375 -91.453125 C 38.160156 -91.453125 36.585938 -91.070312 35.765625 -90.3125 C 34.941406 -89.5625 34.53125 -88.09375 34.53125 -85.90625 L 34.53125 -23.015625 C 34.53125 -17.128906 35.96875 -12.914062 38.84375 -10.375 C 41.71875 -7.84375 45.242188 -7.191406 49.421875 -8.421875 C 53.597656 -9.660156 57.609375 -12.878906 61.453125 -18.078125 C 61.992188 -18.765625 62.398438 -19.003906 62.671875 -18.796875 C 62.953125 -18.597656 62.890625 -18.15625 62.484375 -17.46875 C 57.546875 -10.34375 52.609375 -5.171875 47.671875 -1.953125 C 42.742188 1.265625 38.15625 2.875 33.90625 2.875 Z M 33.90625 2.875 "></path></g></g></g><g fill="#2a1f14" fill-opacity="1"><g transform="translate(753.961265, 147.162138)"><g><path d="M 92.6875 -17.671875 C 92.820312 -17.941406 93.0625 -17.972656 93.40625 -17.765625 C 93.75 -17.566406 93.785156 -17.191406 93.515625 -16.640625 C 88.171875 -9.929688 81.9375 -5 74.8125 -1.84375 C 67.6875 1.300781 60.082031 2.875 52 2.875 C 43.632812 2.875 35.925781 0.921875 28.875 -2.984375 C 21.820312 -6.890625 16.132812 -12.4375 11.8125 -19.625 C 7.5 -26.820312 5.34375 -35.210938 5.34375 -44.796875 C 5.34375 -54.660156 7.632812 -63.429688 12.21875 -71.109375 C 16.8125 -78.785156 22.976562 -84.8125 30.71875 -89.1875 C 38.46875 -93.570312 47 -95.765625 56.3125 -95.765625 C 64.394531 -95.765625 71.519531 -93.914062 77.6875 -90.21875 C 83.851562 -86.519531 88.164062 -81.242188 90.625 -74.390625 C 93.09375 -67.546875 92.820312 -59.394531 89.8125 -49.9375 C 82.550781 -49.800781 73.128906 -49.59375 61.546875 -49.3125 C 49.972656 -49.039062 36.648438 -48.703125 21.578125 -48.296875 C 23.359375 -39.941406 26.710938 -32.644531 31.640625 -26.40625 C 36.578125 -20.175781 42.226562 -15.378906 48.59375 -12.015625 C 54.96875 -8.660156 61.171875 -6.984375 67.203125 -6.984375 C 69.390625 -6.984375 71.988281 -7.222656 75 -7.703125 C 78.019531 -8.179688 81.101562 -9.175781 84.25 -10.6875 C 87.40625 -12.195312 90.21875 -14.523438 92.6875 -17.671875 Z M 48.5 -92.28125 C 39.59375 -92.28125 32.707031 -89.609375 27.84375 -84.265625 C 22.976562 -78.921875 20.546875 -70.695312 20.546875 -59.59375 C 20.546875 -57.8125 20.613281 -56.097656 20.75 -54.453125 C 20.894531 -52.816406 21.101562 -51.175781 21.375 -49.53125 C 31.238281 -49.800781 40.585938 -50.140625 49.421875 -50.546875 C 58.265625 -50.960938 66.109375 -51.238281 72.953125 -51.375 C 74.597656 -54.9375 75.039062 -59.046875 74.28125 -63.703125 C 73.53125 -68.367188 71.890625 -72.859375 69.359375 -77.171875 C 66.828125 -81.484375 63.742188 -85.078125 60.109375 -87.953125 C 56.484375 -90.835938 52.613281 -92.28125 48.5 -92.28125 Z M 48.5 -92.28125 "></path></g></g></g></g></g></svg>